<?xml version="1.0" encoding="UTF-8" standalone="no"?>
<!-- Created with Inkscape (http://www.inkscape.org/) -->

<svg
   xmlns:dc="http://purl.org/dc/elements/1.1/"
   xmlns:cc="http://creativecommons.org/ns#"
   xmlns:rdf="http://www.w3.org/1999/02/22-rdf-syntax-ns#"
   xmlns:svg="http://www.w3.org/2000/svg"
   xmlns="http://www.w3.org/2000/svg"
   xmlns:sodipodi="http://sodipodi.sourceforge.net/DTD/sodipodi-0.dtd"
   xmlns:inkscape="http://www.inkscape.org/namespaces/inkscape"
   width="128mm"
   height="128mm"
   viewBox="0 0 128 128"
   version="1.1"
   id="svg8"
   inkscape:version="0.92.2 5c3e80d, 2017-08-06"
   sodipodi:docname="battery-low-charging-symbolic.svg">
  <defs
     id="defs2" />
  <sodipodi:namedview
     id="base"
     pagecolor="#ffffff"
     bordercolor="#666666"
     borderopacity="1.0"
     inkscape:pageopacity="0.0"
     inkscape:pageshadow="2"
     inkscape:zoom="1.4142136"
     inkscape:cx="237.61204"
     inkscape:cy="152.75266"
     inkscape:document-units="mm"
     inkscape:current-layer="layer3"
     showgrid="false"
     showguides="true"
     inkscape:guide-bbox="true"
     inkscape:window-width="1366"
     inkscape:window-height="717"
     inkscape:window-x="0"
     inkscape:window-y="25"
     inkscape:window-maximized="1"
     inkscape:measure-start="0,0"
     inkscape:measure-end="0.042893,124.895">
    <sodipodi:guide
       position="-4.7624999,95.514581"
       orientation="0,1"
       id="guide77"
       inkscape:locked="false" />
    <sodipodi:guide
       position="-39.475708,-4.6772166"
       orientation="0,1"
       id="guide79"
       inkscape:locked="false" />
    <sodipodi:guide
       position="6.0854165,48.418749"
       orientation="1,0"
       id="guide81"
       inkscape:locked="false" />
    <sodipodi:guide
       position="108.21458,97.234372"
       orientation="1,0"
       id="guide83"
       inkscape:locked="false" />
    <sodipodi:guide
       position="6.0854165,43.920832"
       orientation="1,0"
       id="guide3801"
       inkscape:locked="false" />
    <sodipodi:guide
       position="6.0854165,42.597915"
       orientation="1,0"
       id="guide3803"
       inkscape:locked="false" />
    <sodipodi:guide
       position="11.509375,98.821872"
       orientation="1,0"
       id="guide3807"
       inkscape:locked="false" />
    <sodipodi:guide
       position="29.501041,91.148956"
       orientation="0,1"
       id="guide3809"
       inkscape:locked="false" />
    <sodipodi:guide
       position="103.31979,97.498956"
       orientation="1,0"
       id="guide3813"
       inkscape:locked="false" />
    <sodipodi:guide
       position="-8.8635414,85.460414"
       orientation="0,1"
       id="guide3819"
       inkscape:locked="false" />
    <sodipodi:guide
       position="-7.8052081,43.78854"
       orientation="0,1"
       id="guide3821"
       inkscape:locked="false" />
    <sodipodi:guide
       position="16.933333,98.160414"
       orientation="1,0"
       id="guide3823"
       inkscape:locked="false" />
    <sodipodi:guide
       position="98.122621,32.142423"
       orientation="1,0"
       id="guide3825"
       inkscape:locked="false" />
    <sodipodi:guide
       position="116.11428,73.176187"
       orientation="0,1"
       id="guide3831"
       inkscape:locked="false" />
    <sodipodi:guide
       position="113.77083,97.366664"
       orientation="1,0"
       id="guide3833"
       inkscape:locked="false" />
    <sodipodi:guide
       position="-6.0854165,54.10729"
       orientation="0,1"
       id="guide3835"
       inkscape:locked="false" />
    <sodipodi:guide
       position="122.50208,98.160414"
       orientation="1,0"
       id="guide3837"
       inkscape:locked="false" />
    <sodipodi:guide
       position="47.492999,104.51041"
       orientation="1,0"
       id="guide3866"
       inkscape:locked="false"
       inkscape:label=""
       inkscape:color="rgb(255,0,94)" />
    <sodipodi:guide
       position="8.2682289,33.072916"
       orientation="0,1"
       id="guide3891"
       inkscape:locked="false" />
    <sodipodi:guide
       position="37.041999,29.567187"
       orientation="1,0"
       id="guide4142"
       inkscape:locked="false"
       inkscape:label=""
       inkscape:color="rgb(0,255,74)" />
    <sodipodi:guide
       position="75.957998,33.072916"
       orientation="1,0"
       id="guide4144"
       inkscape:locked="false"
       inkscape:label=""
       inkscape:color="rgb(150,0,255)" />
    <sodipodi:guide
       position="70.842186,69.222998"
       orientation="0,1"
       id="guide4146"
       inkscape:locked="false"
       inkscape:label=""
       inkscape:color="rgb(157,0,255)" />
    <sodipodi:guide
       position="62.861791,59.680998"
       orientation="0,1"
       id="guide4148"
       inkscape:locked="false"
       inkscape:label=""
       inkscape:color="rgb(136,0,255)" />
    <sodipodi:guide
       position="64.358998,48.455964"
       orientation="1,0"
       id="guide4150"
       inkscape:locked="false"
       inkscape:label=""
       inkscape:color="rgb(146,0,255)" />
    <sodipodi:guide
       position="1.403165,37.885454"
       orientation="0,1"
       id="guide4154"
       inkscape:locked="false" />
    <sodipodi:guide
       position="64.3585,92.471997"
       orientation="0,1"
       id="guide4156"
       inkscape:locked="false"
       inkscape:label=""
       inkscape:color="rgb(156,0,255)" />
    <sodipodi:guide
       position="78.845831,108.21458"
       orientation="1,0"
       id="guide4160"
       inkscape:locked="false"
       inkscape:label=""
       inkscape:color="rgb(255,0,85)" />
    <sodipodi:guide
       position="38.827999,56.753124"
       orientation="1,0"
       id="guide4162"
       inkscape:locked="false"
       inkscape:label=""
       inkscape:color="rgb(156,0,255)" />
    <sodipodi:guide
       position="68.592998,24.936978"
       orientation="1,0"
       id="guide4164"
       inkscape:locked="false"
       inkscape:label=""
       inkscape:color="rgb(0,255,117)" />
    <sodipodi:guide
       position="57.414998,54.10729"
       orientation="1,0"
       id="guide4195"
       inkscape:locked="false"
       inkscape:label=""
       inkscape:color="rgb(168,0,255)" />
    <sodipodi:guide
       position="54.702603,36.115999"
       orientation="0,1"
       id="guide4199"
       inkscape:locked="false"
       inkscape:label=""
       inkscape:color="rgb(178,0,255)" />
    <sodipodi:guide
       position="50.336999,21.695833"
       orientation="1,0"
       id="guide4201"
       inkscape:locked="false"
       inkscape:label=""
       inkscape:color="rgb(165,0,255)" />
  </sodipodi:namedview>
  <metadata
     id="metadata5">
    <rdf:RDF>
      <cc:Work
         rdf:about="">
        <dc:format>image/svg+xml</dc:format>
        <dc:type
           rdf:resource="http://purl.org/dc/dcmitype/StillImage" />
        <dc:title></dc:title>
      </cc:Work>
    </rdf:RDF>
  </metadata>
  <g
     inkscape:label="Layer 1"
     inkscape:groupmode="layer"
     id="layer1"
     transform="translate(0,-169)">
    <g
       transform="translate(0.4630208,-1.4712248)"
       id="g30">
      <path
         id="rect3797"
         transform="matrix(0.26458333,0,0,0.26458333,-0.4630208,170.47122)"
         style="fill:#4d4d4d;fill-opacity:1;stroke-width:1.01116705"
         d="m 368.45703,122.43359 c -1.32026,0.0225 -2.64297,0.11393 -3.96484,0.2793 h -66.56446 c 0.003,0.0226 0.007,0.0431 0.01,0.0664 H 298 v 0.46679 c 0.0245,0.0754 0.0312,0.15201 0,0.21094 v 15.82227 h -0.0664 c 0.007,0.0314 0.006,0.0555 0.0156,0.0976 0.004,0.0207 0.0194,0.0404 0.0156,0.0606 0.0194,0.0172 0.0388,0.034 0.0586,0.0508 23.10842,0.0213 46.21694,0.0555 69.32422,0.12891 16.03521,1.08415 25.75381,17.52203 23.57812,32.4707 -0.0892,48.22356 0.17969,96.45594 -0.13476,144.67383 -1.08416,16.03521 -17.52205,25.75381 -32.47071,23.57812 -33.04278,-0.0304 -66.08693,-0.0189 -99.13086,-0.01 0.004,0.0229 0.0135,0.0396 0.008,0.0781 0.006,0.0507 0.002,0.0852 -0.0137,0.0957 -0.002,0.006 -0.003,0.0208 -0.004,0.0293 -1.6e-4,0.002 0,0.007 0,0.008 0.001,7e-5 -9.8e-4,0.004 0,0.004 0.0115,0.004 0.008,0.0231 0.008,0.0449 h 0.0625 v 18.14063 c 38.22741,-0.005 76.45366,-0.0434 114.67578,-0.21875 21.66196,-1.56439 37.70851,-23.14687 35.0625,-44.29688 -0.13266,-52.14451 0.26598,-104.30544 -0.20117,-156.43945 -1.46661,-20.30811 -20.5262,-35.67976 -40.33008,-35.3418 z m -308.523436,0.27539 c -21.818178,0.63801 -39.548028,21.94316 -36.945313,43.59766 0.132662,52.44612 -0.265989,104.90813 0.201172,157.34375 1.564367,21.66198 23.146873,37.70851 44.296875,35.0625 24.170936,-0.0317 48.343412,-0.0292 72.515622,-0.0195 v -18.10352 h 0.0742 c 0.003,-0.0174 0.005,-0.0347 0.0137,-0.0527 -0.007,-0.008 -0.0144,-0.0153 -0.0215,-0.0234 -6.6e-4,0.003 8.9e-4,0.007 0,0.01 -0.003,0.014 -0.0313,-0.0388 -0.0215,-0.0312 0.008,0.006 0.0147,0.0137 0.0215,0.0215 10e-4,-0.006 -0.001,-0.0118 0.002,-0.0176 -0.002,-0.002 -0.002,0.001 -0.004,-0.002 0.004,10e-4 -0.001,-0.001 0.004,0 1.2e-4,-0.001 -9e-5,-0.003 0,-0.004 -0.0266,-0.0353 -0.0459,-0.0626 -0.0879,-0.14453 -24.20451,-0.0204 -48.40832,-0.062 -72.611326,-0.14062 -16.03522,-1.08416 -25.753825,-17.52322 -23.578125,-32.4707 0.08931,-48.22356 -0.17954,-96.45594 0.134765,-144.67383 1.064259,-13.08484 13.008341,-23.85675 26.136719,-23.57813 36.500837,0.0332 73.003547,0.0169 109.505857,0 -0.002,-0.0137 -0.004,-0.0273 -0.006,-0.041 -0.008,-0.0605 -0.001,-0.10891 0.002,-0.16211 h -0.0645 v -16.48242 c -0.0251,-0.0605 0.006,0.009 -0.0332,-0.084 H 62.056641 c -0.711777,-0.0231 -1.419235,-0.0188 -2.123047,-0.004 z m 237.751956,0.004 c -6.3e-4,0.004 -0.003,0.008 -0.004,0.0117 0.0109,-0.003 0.0223,-0.003 0.0332,-0.006 0.005,-0.001 0.007,-0.004 0.0117,-0.006 z m 0.0977,0.006 c -2.2e-4,0.002 2.8e-4,0.004 0,0.006 v 0.002 c 0.0103,0.0178 0.0207,0.0353 0.0332,0.0527 h 0.006 c 0.004,-0.003 0.007,-0.002 0.01,0 -0.0155,-0.0199 -0.0319,-0.0378 -0.0488,-0.0606 z m 0,0.008 c -0.002,0.0142 -0.006,0.0277 -0.01,0.041 0.007,0.002 0.013,0.004 0.0195,0.006 -0.003,-0.0162 -0.003,-0.0334 -0.01,-0.0469 z m -59.06054,16.55274 c -0.0387,0.0431 -0.0547,0.0867 -0.10743,0.1289 v 0.002 c -0.0249,0.0199 -0.049,0.0409 -0.0742,0.0605 1.18554,2.7e-4 2.37107,0 3.55664,0 0.004,-0.004 0.006,-0.009 0.01,-0.0137 -0.006,-0.004 -0.0136,-0.007 -0.0195,-0.0117 -0.0139,-0.0112 0.0203,-0.023 0.0469,-0.0352 0.004,-0.0221 0.007,-0.0443 0.0117,-0.0664 0.003,-0.0144 0.008,-0.0233 0.0117,-0.0371 -0.01,-0.008 -0.0216,-0.0186 -0.0332,-0.0273 z m -5.82227,0.13281 c -0.0137,0.0136 -0.0273,0.0274 -0.041,0.041 -8.1e-4,0.005 0.001,0.0101 -0.002,0.0156 0.001,4.9e-4 0.003,-0.001 0.004,0.002 0.0397,2e-5 0.0794,1e-5 0.11914,0 -0.0262,-0.0201 -0.0544,-0.0377 -0.0801,-0.0586 z m -36.63281,200.93945 c -1.4883,3.5e-4 -2.97656,0.002 -4.46485,0.002 -0.0106,0.0216 -0.0214,0.043 -0.0332,0.0645 -0.005,0.008 -0.0109,0.0153 -0.0156,0.0234 0.005,0.003 0.0111,0.008 0.0156,0.01 -0.004,0.0214 -0.002,0.0249 -0.004,0.041 0.01,0.009 0.0112,0.005 0.0215,0.0156 0.008,0.008 -0.004,0.0217 -0.0117,0.0293 -0.006,0.006 -0.0129,0.0176 -0.0195,0.0273 -9.3e-4,0.008 -0.007,0.017 -0.0117,0.0254 h 4.19336 c 0.0282,-0.0214 0.0651,-0.0191 0.0996,-0.01 h 0.002 c 0.0154,-0.0118 0.0306,-0.0267 0.0449,-0.0293 -0.002,-5e-4 -0.004,2.5e-4 -0.006,-0.002 -0.004,-0.001 0.005,3.9e-4 0.0117,-0.002 -3.9e-4,-0.004 -0.004,-0.008 -0.004,-0.0117 -7e-5,-0.0113 0.0187,-0.01 0.0293,-0.01 6e-5,-0.006 -0.002,-0.0123 0.002,-0.0195 0.0103,-0.0188 0.034,-0.0236 0.0547,-0.0312 0.007,-0.0182 0.0139,-0.0471 0.0215,-0.0508 h 0.002 c 0.009,-0.004 0.018,-0.0156 0.0273,-0.0117 0.0118,-0.0319 0.0202,-0.0419 0.0215,-0.0137 0.002,-0.002 0.004,-0.003 0.006,-0.006 0.005,-0.007 0.006,-0.01 0.0117,-0.0176 -3.4e-4,0.004 0.004,0.004 0.006,0.01 0.003,-0.007 0.005,-0.0144 0.008,-0.0215 -9.3e-4,-0.002 -0.003,-0.004 -0.004,-0.006 v -0.002 c -7.5e-4,-0.002 -0.003,-0.002 -0.004,-0.004 z m 62.41211,0.16602 v 0.002 c 0.001,0.003 0.003,0.007 0.004,0.01 -3.8e-4,-0.004 -0.002,-0.008 -0.002,-0.0117 z m -74.07031,0.004 c -0.002,0.003 -0.005,0.005 -0.008,0.008 0.003,1.3e-4 0.006,0.002 0.01,0.002 l 0.006,-0.006 c -0.003,-0.001 -0.005,-0.003 -0.008,-0.004 z m -44.51954,0.002 c 7e-4,0.003 -0.003,0.003 -0.002,0.006 0.001,6.8e-4 0.003,-0.001 0.004,0.002 7.2e-4,-10e-4 -0.001,-0.003 0.002,-0.004 -0.001,-0.002 -0.003,-0.002 -0.004,-0.004 z m 118.75586,0.01 c -0.001,7.2e-4 -0.003,8.4e-4 -0.004,0.002 0.003,0.005 0.007,0.009 0.01,0.0137 -0.002,-0.005 -0.004,-0.0106 -0.006,-0.0156 z m 0.006,0.0156 v 0.002 c 0.002,0.005 0.006,0.009 0.008,0.0137 -5e-5,-0.006 -0.002,-0.0132 -0.002,-0.0195 -0.002,8.4e-4 -0.004,0.002 -0.006,0.004 z m 0.084,0.002 c -0.003,0.0129 -0.004,0.0261 -0.0117,0.0391 h 0.0254 c -0.002,-0.0107 -0.006,-0.0209 -0.01,-0.0312 -8.8e-4,-0.003 -0.003,-0.005 -0.004,-0.008 z m -0.14649,0.0117 c -0.005,0.002 -0.0102,0.005 -0.0156,0.008 0.007,0.004 0.0138,0.0119 0.0215,0.0156 -0.003,-0.007 -0.005,-0.0142 -0.006,-0.0215 z m -67.13281,0.008 v 0.004 0.006 c -0.008,0.006 -0.0125,0.0144 -0.0195,0.0215 h 0.043 c -0.004,-0.007 -0.009,-0.0144 -0.0137,-0.0215 -0.003,4.9e-4 -0.006,-0.008 -0.01,-0.01 z m 67.20508,0 c 0.002,0.008 0.006,0.0164 0.01,0.0234 h 0.002 c -0.004,-0.007 -0.008,-0.0163 -0.0117,-0.0234 z m -0.0918,0.01 c -0.003,0.006 -0.0117,0.0115 -0.0156,0.0176 h 0.0176 c -2.3e-4,-0.006 -8e-4,-0.0116 -0.002,-0.0176 z" />
      <path
         sodipodi:nodetypes="cccccc"
         inkscape:connector-curvature="0"
         id="path3829"
         d="m 114.3,223.82403 c -0.31783,0.004 -0.6244,-2.2e-4 -0.95035,-2.2e-4 v 20.64829 c 0.32602,0 0.63259,-0.003 0.95035,-2.3e-4 4.3777,-4e-5 7.92655,-4.62216 7.92665,-10.32392 -1e-4,-5.70175 -3.54895,-10.32388 -7.92665,-10.32392 z"
         style="fill:#4d4d4d;fill-opacity:1;stroke-width:0.24847035" />
    </g>
    <g
       inkscape:groupmode="layer"
       id="layer3"
       inkscape:label="Layer 2">
      <path
         inkscape:connector-curvature="0"
         id="path4207"
         style="fill:#4d4d4d;fill-opacity:1;stroke:none;stroke-width:0.26458332px;stroke-linecap:butt;stroke-linejoin:miter;stroke-opacity:1"
         d="M 64.358762,204.52829 38.828021,237.31905 H 57.415 L 50.33688,260.88402 75.958056,227.777 H 57.415 Z" />
    </g>
  </g>
</svg>
